- 
http://www.Speed.Cd 
       
http://www.Speed.Cd      fast  and The Hottest Private Tracker on the net

(((--Submit for invite!!--)))

Please Seed back to make the speed Faster!!!

------------------nfo--------------------------
-








































          
          
              
              
                    
                    
                    
                    

Friends.with.Benefits.2011.R5.LINE.Xvid-SiC

Poster:
[img]http://img508.imageshack.us/img508/8290/friendswithbenefitsl.jpg[/img]

IMDB Link:
http://www.imdb.com/title/tt1632708/

Description:
While trying to avoid the clichs of Hollywood romantic comedies, Dylan and 
Jamie soon discover however that adding the act of sex to their friendship does 
lead to complications. 

MediaInfo:
General
Complete name                    : Friends.with.Benefits.2011.R5.LINE.Xvid-SiC.avi
Format                           : AVI
Format/Info                      : Audio Video Interleave
File size                        : 1.09 GiB
Duration                         : 1h 44mn
Overall bit rate                 : 1 488 Kbps

Video
ID                               : 0
Format                           : MPEG-4 Visual
Format profile                   : Advanced Simple@L5
Format settings, BVOP            : Yes
Format settings, QPel            : No
Format settings, GMC             : No warppoints
Format settings, Matrix          : Default (H.263)
Muxing mode                      : Packed bitstream
Codec ID                         : XVID
Codec ID/Hint                    : XviD
Duration                         : 1h 44mn
Bit rate                         : 1 354 Kbps
Width                            : 720 pixels
Height                           : 304 pixels
Display aspect ratio             : 2.35:1
Frame rate                       : 25.000 fps
Resolution                       : 8 bits
Colorimetry                      : 4:2:0
Scan type                        : Progressive
Bits/(Pixel*Frame)               : 0.247
Stream size                      : 1 017 MiB (91%)
Writing library                  : XviD 64

Audio
ID                               : 1
Format                           : MPEG Audio
Format version                   : Version 1
Format profile                   : Layer 3
Mode                             : Joint stereo
Format_Settings_ModeExtension    : MS Stereo
Codec ID                         : 55
Codec ID/Hint                    : MP3
Duration                         : 1h 44mn
Bit rate mode                    : Constant
Bit rate                         : 128 Kbps
Channel(s)                       : 2 channels
Sampling rate                    : 44.1 KHz
Stream size                      : 96.1 MiB (9%)
Alignment                        : Aligned on interleaves
Interleave, duration             : 160 ms (4.00 video frames)
Interleave, preload duration     : 208 ms
Title                            : 2ch English
Writing library                  : LAME3.98r
Encoding settings                : -m j -V 4 -q 2 -lowpass 17 -b 128

Screenshots:
[img]http://img84.imageshack.us/img84/3942/friendswithbenefits2011.png[/img]
[img]http://img199.imageshack.us/img199/3942/friendswithbenefits2011.png[/img]
[img]http://img59.imageshack.us/img59/3942/friendswithbenefits2011.png[/img]
[img]http://img36.imageshack.us/img36/3942/friendswithbenefits2011.png[/img]
[img]http://img819.imageshack.us/img819/1607/vlcsnap2011082422h06m03.png[/img]
[img]http://img3.imageshack.us/img3/2316/vlcsnap2011082422h07m15.png[/img]
[img]http://img89.imageshack.us/img89/1710/vlcsnap2011082422h06m46.png[/img]

Note :   N/A 

Source Film : DVDR.Seks.po.druzhbe.2011.DVD9 Thanks!!!
Audio Source : IMAGiNE Thanks!!!

Encoder: Bezauk

Enjoy!

Respects to CaptainHomey, Cyanide, CM8, Rx, THC, ELEKTRI4KA, 
Killerhz, PA, YeFsTe, BoxSlots, MrRep and everyone in the struggle...